<svg xmlns="http://www.w3.org/2000/svg" viewBox="0 0 500 500"><defs><style>.a{fill:#f1f2f6;}</style></defs><title>Logo - black</title><rect class="a" width="500" height="500"/><path d="M486.58,9.7a13.68,13.68,0,0,0-5.25-.91h-8.25l0-.11H16.23A6.81,6.81,0,0,0,11.1,11.1a6.81,6.81,0,0,0-2.42,5.13V483.77a6.81,6.81,0,0,0,2.42,5.13,6.81,6.81,0,0,0,5.13,2.42H473.11l-.05-.2h10.68a6.22,6.22,0,0,0,1.09-.1,8.1,8.1,0,0,0,6.49-7.25V16.23A6.87,6.87,0,0,0,486.58,9.7ZM456.34,456.34H43.63V43.66H456.34Z"/><path d="M191.69,410.07c0,2.44,1.47,7.32,9.77,7.32h24.89V118.73a9,9,0,0,1,8.78-8.3h15.46a44.69,44.69,0,0,0-1.37,10.73V156.3s-1.46,22.94,15.62,54.17l42,78.57s15.13,26.35,15.13,46.36v39a18.55,18.55,0,1,1-37.09.49V315.39c-8.79,3.91-22.94,10.25-25.87,11.23-4.39,2.43-9.76,7.8-9.76,19v35.14a44.34,44.34,0,0,0,42.46,43.43h22a43.63,43.63,0,0,0,43.92-43.43V337.35s1.47-22.93-15.62-54.17l-42-79.05s-15.13-25.87-15.13-45.88V125.56a18.55,18.55,0,1,1,37.09,0v39.52c9.27-3.9,22.93-10.24,25.86-11.7,4.39-2.45,9.76-7.81,9.76-19V121.16c0-23.42-19-44.89-42.46-45.38h-22c-.15,0-.29,0-.44,0v0H153.14a10.83,10.83,0,0,0-10.73,10.74v23.91h49.28Z"/></svg>